<svg xmlns:dc="http://purl.org/dc/elements/1.1/" xmlns:cc="http://creativecommons.org/ns#" xmlns:rdf="http://www.w3.org/1999/02/22-rdf-syntax-ns#" xmlns:svg="http://www.w3.org/2000/svg" xmlns="http://www.w3.org/2000/svg" xmlns:sodipodi="http://sodipodi.sourceforge.net/DTD/sodipodi-0.dtd" xmlns:inkscape="http://www.inkscape.org/namespaces/inkscape" viewBox="0 0 709.87903 1040.8207375000002" version="1.1" x="0px" y="0px"><g transform="translate(-677.53324,386.73426)"><path style="" d="M 1005.1788,444.86762 C 876.2111,434.95536 769.32464,355.46706 746.73069,252.66741 735.77072,202.80094 744.99597,151.22085 772.90815,106.30434 831.6558,11.767124 962.11481,-39.584426 1090.5262,-18.717151 c 116.5125,18.93364957 208.1044,94.41868 228.7955,188.560641 10.96,49.86647 1.7348,101.44656 -26.1774,146.36307 -53.7669,86.52217 -168.6124,137.83435 -287.9655,128.66107 z m 57.2224,-27.38857 c 40.7277,-3.77454 75.9508,-13.35802 110.4797,-30.05928 125.3185,-60.61514 164.6765,-186.87631 89.4217,-286.86647 C 1230.4883,58.281987 1175.1983,24.000924 1114.3414,8.8138986 1039.1992,-9.9380634 960.22146,-2.3401634 893.17156,30.091124 767.85306,90.706279 728.49507,216.96744 803.74985,316.9576 c 31.8119,42.26811 87.04189,76.51458 147.9612,91.74631 35.71011,8.92864 75.22915,12.06158 110.69015,8.77514 z M 762.03965,-25.179876 c -10.27015,-1.471963 -25.8321,-7.210438 -35.53043,-13.101863 -10.32986,-6.275062 -24.76716,-20.170674 -31.5166,-30.334099 -12.28347,-18.496675 -17.45938,-35.951542 -17.45938,-58.878712 0,-22.92718 5.17591,-40.38204 17.45938,-58.87871 6.74944,-10.16343 21.18674,-24.05904 31.5166,-30.3341 18.1577,-11.03023 41.13749,-16.03507 61.58494,-13.41279 21.53025,2.76114 39.71688,11.49147 55.83709,26.8041 14.77897,14.03858 23.90588,29.61495 29.41245,50.1965 3.75813,14.04652 3.75813,37.20347 0,51.25 -5.50657,20.581549 -14.63348,36.157924 -29.41245,50.196499 -15.59053,14.809475 -33.78335,23.783337 -53.88411,26.5791 -11.03903,1.535387 -16.81904,1.51765 -28.00749,-0.08587 z m 31.5757,-20.453975 c 44.52302,-9.431175 73.6527,-55.080939 63.64465,-99.738939 -10.06174,-44.89757 -53.28189,-73.31155 -97.32293,-63.98246 -44.52302,9.43118 -73.6527,55.08094 -63.64465,99.73894 10.06164,44.897122 53.28233,73.311446 97.32293,63.982459 z m 479.67435,20.453975 c -10.2702,-1.471963 -25.8321,-7.210438 -35.5305,-13.101863 -10.3298,-6.275062 -24.7671,-20.170674 -31.5166,-30.334099 -12.2834,-18.496675 -17.4594,-35.951542 -17.4594,-58.878712 0,-22.92718 5.176,-40.38204 17.4594,-58.87871 6.7495,-10.16343 21.1868,-24.05904 31.5166,-30.3341 18.1577,-11.03023 41.1375,-16.03507 61.585,-13.41279 21.5302,2.76114 39.7168,11.49147 55.8371,26.8041 14.7789,14.03858 23.9058,29.61495 29.4124,50.1965 3.7581,14.04652 3.7581,37.20347 0,51.25 -5.5066,20.581549 -14.6335,36.157924 -29.4124,50.196499 -15.5906,14.809475 -33.7834,23.783337 -53.8842,26.5791 -11.039,1.535387 -16.819,1.51765 -28.0074,-0.08587 z m 31.5757,-20.453975 c 44.523,-9.431175 73.6527,-55.080939 63.6446,-99.738939 -10.0617,-44.89757 -53.2819,-73.31155 -97.3229,-63.98246 -44.523,9.43118 -73.6527,55.08094 -63.6447,99.73894 10.0617,44.897122 53.2824,73.311446 97.323,63.982459 z M 1017.0732,-181.2967 c -37.84071,-6.7982 -68.12677,-34.52784 -79.80955,-73.07285 -3.03906,-10.0268 -3.40981,-13.22071 -3.40981,-29.375 0,-16.15429 0.37075,-19.3482 3.40981,-29.375 8.85898,-29.22845 27.78248,-51.87077 53.79043,-64.36125 15.38042,-7.38654 23.84852,-9.25349 41.97212,-9.25349 18.1236,0 26.5917,1.86695 41.9722,9.25349 26.0079,12.49048 44.9314,35.1328 53.7904,64.36125 3.039,10.0268 3.4098,13.22071 3.4098,29.375 0,16.15429 -0.3708,19.3482 -3.4098,29.375 -6.4664,21.33466 -18.9242,40.1315 -34.8626,52.60249 -9.9509,7.78601 -25.3397,15.6217 -36.525,18.59775 -9.1846,2.44374 -31.4056,3.47556 -40.328,1.87261 z m 37.203,-21.78627 c 39.1121,-10.49965 65.9943,-51.31252 60.199,-91.39469 -4.1101,-28.42655 -21.3338,-52.60349 -45.7495,-64.21846 -13.1872,-6.27339 -21.2569,-8.10563 -35.6995,-8.10563 -14.4425,0 -22.5123,1.83224 -35.69947,8.10563 -17.92751,8.52842 -33.88976,26.08103 -41.06463,45.15596 -9.40825,25.01256 -6.3162,53.40977 8.25141,75.78072 10.95824,16.82815 31.96794,31.66674 49.76269,35.14605 3.7813,0.73933 8,1.6033 9.375,1.91995 4.393,1.01167 23.5124,-0.48013 30.625,-2.38953 z" fill="#000000"/></g><text x="0" y="847.65659" fill="#000000" font-size="5px" font-weight="bold" font-family="'Helvetica Neue', Helvetica, Arial-Unicode, Arial, Sans-serif">Created by JeraOcean</text><text x="0" y="852.65659" fill="#000000" font-size="5px" font-weight="bold" font-family="'Helvetica Neue', Helvetica, Arial-Unicode, Arial, Sans-serif">from the Noun Project</text></svg>